<svg xmlns="http://www.w3.org/2000/svg"  viewBox="0 0 32 32" width="64px" height="64px"><path d="M 16 3 C 8.832031 3 3 8.832031 3 16 C 3 23.167969 8.832031 29 16 29 C 23.167969 29 29 23.167969 29 16 C 29 8.832031 23.167969 3 16 3 Z M 16 5 C 22.085938 5 27 9.914063 27 16 C 27 22.085938 22.085938 27 16 27 C 9.914063 27 5 22.085938 5 16 C 5 9.914063 9.914063 5 16 5 Z M 10 8 L 10 10 L 22 10 L 22 8 Z M 16 10 C 12.703125 10 10 12.703125 10 16 C 10 19.296875 12.703125 22 16 22 C 19.296875 22 22 19.296875 22 16 C 22 12.703125 19.296875 10 16 10 Z M 16 22 L 10 22 L 10 24 L 22 24 L 22 22 Z M 16 12 C 18.203125 12 20 13.796875 20 16 C 20 18.203125 18.203125 20 16 20 C 13.796875 20 12 18.203125 12 16 C 12 13.796875 13.796875 12 16 12 Z"/></svg>